<svg id="mail" xmlns="http://www.w3.org/2000/svg" width="32.786" height="26.09" viewBox="0 0 32.786 26.09">
  <path id="Path_125" data-name="Path 125" d="M4.518,9.078A1.821,1.821,0,0,1,6.34,7.257H35.465a1.821,1.821,0,0,1,1.821,1.821V29.7a3.643,3.643,0,0,1-3.643,3.643H8.143A3.643,3.643,0,0,1,4.5,29.7V9.669a1.763,1.763,0,0,1,.018-.255Zm3.625,4.051V29.7h25.5V13.129l-8.886,8.886a5.464,5.464,0,0,1-7.727,0l-8.888-8.89Zm2.863-2.288H30.78l-8.6,8.6a1.821,1.821,0,0,1-2.578,0l-8.6-8.6Z" transform="translate(-4.5 -7.257)" fill="#fff" fill-rule="evenodd"/>
</svg>
